<?xml version="1.0" standalone="no"?>
<!DOCTYPE svg PUBLIC "-//W3C//DTD SVG 20010904//EN"
 "http://www.w3.org/TR/2001/REC-SVG-20010904/DTD/svg10.dtd">
<svg version="1.0" xmlns="http://www.w3.org/2000/svg"
 width="500.000000pt" height="500.000000pt" viewBox="0 0 500.000000 500.000000"
 preserveAspectRatio="xMidYMid meet">

<g transform="translate(0.000000,500.000000) scale(0.100000,-0.100000)"
fill="#000000" stroke="none">
<path d="M1530 4410 c-180 -14 -526 -74 -566 -98 -7 -5 7 -69 39 -188 l49
-181 72 18 c203 53 307 64 601 64 226 0 301 -4 390 -18 556 -94 1016 -327
1400 -712 263 -263 446 -543 579 -887 24 -62 52 -141 61 -176 10 -34 21 -65
26 -67 6 -5 348 82 358 91 5 4 -33 127 -76 249 -200 564 -607 1084 -1111 1417
-384 253 -778 403 -1226 468 -153 22 -446 32 -596 20z"/>
<path d="M1517 3490 c-95 -10 -306 -55 -318 -67 -6 -7 83 -348 93 -359 3 -2
20 1 39 6 111 32 221 44 404 44 217 0 312 -16 516 -84 475 -158 866 -555 1020
-1037 13 -40 28 -73 34 -73 13 0 349 90 353 95 2 2 -15 59 -38 127 -186 546
-599 986 -1134 1205 -235 96 -455 142 -716 148 -91 2 -205 0 -253 -5z"/>
<path d="M1590 2590 c-219 -28 -446 -133 -603 -279 -223 -208 -361 -575 -344
-918 26 -514 303 -909 737 -1051 230 -75 534 -74 760 3 456 155 749 613 727
1135 -24 572 -350 988 -861 1096 -88 19 -315 26 -416 14z m305 -415 c81 -21
208 -84 277 -140 110 -86 201 -228 240 -372 29 -107 31 -336 4 -438 -40 -154
-138 -317 -238 -395 -153 -122 -374 -169 -581 -125 -183 39 -343 167 -430 345
-71 144 -82 196 -82 390 0 193 11 246 81 390 84 172 242 301 420 344 79 19
235 20 309 1z"/>
<path d="M1631 1769 c-211 -64 -285 -332 -138 -496 86 -95 236 -125 350 -69
64 31 120 89 150 155 31 66 29 178 -3 246 -31 63 -89 121 -148 148 -53 23
-160 31 -211 16z"/>
</g>
</svg>
